ply
format ascii 1.0
comment VCGLIB generated
element vertex 35
property float x
property float y
property float z
element face 66
property list uchar int vertex_indices
end_header
0.7999986 0 376 
0.7999986 0 0 
2.299994 0 376 
2.299994 0 0 
2.299994 1.499999 376 
3.099993 1.499999 376 
3.099993 59.3 376 
0 59.3 376 
0 1.499999 376 
0.7999986 1.499999 376 
3.099993 59.7 374.2 
1.199991 59.7 374.2 
0 59.7 374.2 
0 59.7 0 
1.199991 59.7 0 
0.7999986 1.499999 0 
0 1.499999 0 
1.199991 118.5 0 
1.999989 118.5 0 
1.999989 120 0 
3.5 120 0 
3.5 118.5 0 
2.299994 1.499999 0 
3.099993 1.499999 0 
3.099993 60.3 0 
4.299998 60.3 0 
4.299998 118.5 0 
3.099993 60.3 374.2 
1.199991 118.5 374.2 
3.5 120 374.2 
1.999989 120 374.2 
3.5 118.5 374.2 
1.999989 118.5 374.2 
4.299998 60.3 374.2 
4.299998 118.5 374.2 
3 0 1 2 
3 2 1 3 
3 4 5 6 
3 7 8 9 
3 0 2 9 
3 9 2 4 
3 9 4 7 
3 7 4 6 
3 6 10 7 
3 7 10 11 
3 7 11 12 
3 13 12 14 
3 14 12 11 
3 15 16 13 
3 14 17 18 
3 19 20 18 
3 18 20 21 
3 18 21 14 
3 22 3 1 
3 1 15 22 
3 22 15 13 
3 22 13 23 
3 23 13 14 
3 23 14 24 
3 24 14 21 
3 24 21 25 
3 25 21 26 
3 13 16 12 
3 12 16 8 
3 12 8 7 
3 6 5 10 
3 10 5 23 
3 10 23 27 
3 27 23 24 
3 17 14 28 
3 28 14 11 
3 11 10 27 
3 29 30 31 
3 31 30 32 
3 33 34 27 
3 27 34 31 
3 27 31 11 
3 11 31 32 
3 11 32 28 
3 30 29 19 
3 19 29 20 
3 25 33 24 
3 24 33 27 
3 34 33 26 
3 26 33 25 
3 26 21 34 
3 34 21 31 
3 21 20 31 
3 31 20 29 
3 17 28 18 
3 18 28 32 
3 18 32 19 
3 19 32 30 
3 0 9 1 
3 1 9 15 
3 9 8 15 
3 15 8 16 
3 5 4 23 
3 23 4 22 
3 4 2 22 
3 22 2 3 
